<?xml version="1.0" encoding="UTF-8"?>
<!DOCTYPE svg PUBLIC "-//W3C//DTD SVG 1.1//EN" "http://www.w3.org/Graphics/SVG/1.1/DTD/svg11.dtd">
<!-- Creator: CorelDRAW 2021 (64-Bit) -->
<svg xmlns="http://www.w3.org/2000/svg" xml:space="preserve" width="19.885in" height="15.0425in" version="1.1" style="shape-rendering:geometricPrecision; text-rendering:geometricPrecision; image-rendering:optimizeQuality; fill-rule:evenodd; clip-rule:evenodd"
viewBox="0 0 19885.04 15042.52"
 xmlns:xlink="http://www.w3.org/1999/xlink"
 xmlns:xodm="http://www.corel.com/coreldraw/odm/2003">
 <defs>
  <style type="text/css">
   <![CDATA[
    .str1 {stroke:black;stroke-width:55.56;stroke-linecap:round;stroke-linejoin:round;stroke-miterlimit:2.61313}
    .str2 {stroke:black;stroke-width:27.78;stroke-linecap:round;stroke-linejoin:round;stroke-miterlimit:2.61313}
    .str3 {stroke:black;stroke-width:13.89;stroke-linecap:round;stroke-linejoin:round;stroke-miterlimit:2.61313}
    .str0 {stroke:black;stroke-width:6.94;stroke-linecap:round;stroke-linejoin:round;stroke-miterlimit:2.61313;stroke-dasharray:13.889764 34.724409}
    .fil0 {fill:none}
   ]]>
  </style>
 </defs>
 <g id="Border_x0020_and_x0020_Grommet">
  <metadata id="CorelCorpID_0Corel-Layer"/>
  <line class="fil0 str0" x1="3380.97" y1="12957" x2="15008.94" y2= "12957" />
  <line class="fil0 str0" x1="5903.96" y1="6380.27" x2="5905.43" y2= "14322.53" />
  <line class="fil0 str0" x1="7228.16" y1="13745.54" x2="3293.2" y2= "11402.56" />
  <line class="fil0 str0" x1="5915.59" y1="12958.3" x2="16361.44" y2= "10008.17" />
  <line class="fil0 str1" x1="15747.22" y1="4251.13" x2="15747.22" y2= "10156.64" />
  <line class="fil0 str1" x1="5902.26" y1="12957" x2="4383.91" y2= "12044.1" />
  <line class="fil0 str1" x1="5901.87" y1="7047.31" x2="4383.52" y2= "6134.41" />
  <line class="fil0 str1" x1="15744.37" y1="4242.05" x2="13260.76" y2= "3609.43" />
  <line class="fil0 str2" x1="4383.48" y1="6135.23" x2="4368.15" y2= "12044.1" />
  <polyline class="fil0 str1" points="15736.5,4249.93 5904.64,7050.8 5904.64,12956.31 15747.22,10156.64 "/>
  <line class="fil0 str1" x1="13260.76" y1="3609.43" x2="4383.48" y2= "6135.23" />
  <line class="fil0 str1" x1="13781.56" y1="4823.11" x2="13781.56" y2= "10728.62" />
  <line class="fil0 str1" x1="11823.55" y1="5355.17" x2="11823.55" y2= "11260.68" />
  <line class="fil0 str1" x1="9857.45" y1="5923.63" x2="9857.45" y2= "11829.15" />
  <line class="fil0 str1" x1="7883.06" y1="6487.74" x2="7883.06" y2= "12393.26" />
  <line class="fil0 str1" x1="15744.77" y1="6265.85" x2="5910.11" y2= "9064.05" />
  <line class="fil0 str1" x1="15743.87" y1="8284.07" x2="5909.21" y2= "11082.27" />
  <line class="fil0 str1" x1="5909.66" y1="9058.07" x2="4391.3" y2= "8145.17" />
  <line class="fil0 str1" x1="5894.52" y1="11080.56" x2="4376.16" y2= "10167.66" />
  <line class="fil0 str3" x1="15709.93" y1="10146.28" x2="14585.13" y2= "9470" />
  <path class="fil0 str3" d="M5904.64 11940.05l775.69 -221.21 0 -855.98m1186.98 517.48l814.46 -232.26 -0 -854.68m1187.49 516.04l799.74 -228.07 -0.01 -853.39m3112.57 -34.25l801.15 -228.46 0 -850.83m-2759.16 1637.68l799.94 -228.12 0 -852.11"/>
  <polyline class="fil0 str2" points="7682.7,8488.46 7799.94,8453.88 7799.94,6570.22 5969.69,7110.83 5969.69,8993.81 7300.57,8601.19 "/>
  <polyline class="fil0 str2" points="7302.88,8597.26 7346.62,8480.74 7612.23,8398.73 7692.28,8484.53 "/>
  <polyline class="fil0 str2" points="7694.52,10499.15 7811.76,10464.57 7811.76,8580.91 5981.5,9121.52 5981.5,11004.5 7312.39,10611.88 "/>
  <polyline class="fil0 str2" points="7314.69,10607.94 7358.43,10491.43 7624.04,10409.42 7704.09,10495.22 "/>
  <polyline class="fil0 str2" points="9671.39,7916.72 9788.63,7882.13 9788.63,5998.48 7958.38,6539.08 7958.38,8422.06 9289.26,8029.44 "/>
  <polyline class="fil0 str2" points="9291.57,8025.51 9335.31,7909 9600.92,7826.98 9680.97,7912.78 "/>
  <polyline class="fil0 str2" points="9660.16,9950.17 9777.4,9915.59 9777.4,8031.93 7947.15,8572.54 7947.15,10455.52 9278.03,10062.9 "/>
  <polyline class="fil0 str2" points="9280.33,10058.96 9324.07,9942.45 9589.69,9860.44 9669.74,9946.24 "/>
  <polyline class="fil0 str2" points="11643.89,7353.93 11761.13,7319.34 11761.13,5435.69 9930.88,5976.29 9930.88,7859.28 11261.76,7466.66 "/>
  <polyline class="fil0 str2" points="11264.07,7462.72 11307.81,7346.21 11573.42,7264.19 11653.47,7349.99 "/>
  <polyline class="fil0 str2" points="11651.37,9365.4 11768.61,9330.81 11768.61,7447.16 9938.36,7987.76 9938.36,9870.75 11269.24,9478.13 "/>
  <polyline class="fil0 str2" points="11271.55,9474.19 11315.29,9357.68 11580.9,9275.67 11660.95,9361.46 "/>
  <polyline class="fil0 str2" points="13601.06,6801.96 13718.3,6767.37 13718.3,4883.72 11888.04,5424.32 11888.04,7307.31 13218.93,6914.69 "/>
  <polyline class="fil0 str2" points="13205.48,6910.75 13249.22,6794.24 13514.83,6712.22 13594.89,6798.02 "/>
  <polyline class="fil0 str2" points="15564,6238.33 15681.24,6203.74 15681.24,4320.09 13850.99,4860.69 13850.99,6743.68 15181.87,6351.06 "/>
  <polyline class="fil0 str2" points="15176.3,6347.12 15220.04,6230.61 15485.65,6148.59 15565.7,6234.39 "/>
  <polyline class="fil0 str2" points="15561.87,8260.31 15679.11,8225.72 15679.11,6342.07 13848.85,6882.67 13848.85,8765.66 15179.74,8373.04 "/>
  <polyline class="fil0 str2" points="15182.04,8369.1 15225.78,8252.59 15491.39,8170.57 15571.44,8256.37 "/>
  <polyline class="fil0 str2" points="13599.01,8818.35 13716.25,8783.77 13716.25,6900.11 11886,7440.72 11886,9323.7 13216.88,8931.08 "/>
  <polyline class="fil0 str2" points="13219.19,8927.15 13262.93,8810.63 13528.54,8728.62 13608.59,8814.42 "/>
  <line class="fil0 str3" x1="13744.59" y1="10696.89" x2="12619.79" y2= "10020.62" />
  <line class="fil0 str3" x1="11791.74" y1="11253.9" x2="10666.94" y2= "10577.63" />
  <line class="fil0 str3" x1="9803.39" y1="11822.98" x2="8678.59" y2= "11146.7" />
  <line class="fil0 str3" x1="7805.56" y1="12397.02" x2="6680.76" y2= "11720.75" />
 </g>
</svg>
