<?xml version="1.0" encoding="UTF-8"?>
<!DOCTYPE svg PUBLIC "-//W3C//DTD SVG 1.1//EN" "http://www.w3.org/Graphics/SVG/1.1/DTD/svg11.dtd">
<!-- Creator: CorelDRAW 2021 (64-Bit) -->
<svg xmlns="http://www.w3.org/2000/svg" xml:space="preserve" width="11.6929in" height="8.26772in" version="1.1" style="shape-rendering:geometricPrecision; text-rendering:geometricPrecision; image-rendering:optimizeQuality; fill-rule:evenodd; clip-rule:evenodd"
viewBox="0 0 11692.91 8267.72"
 xmlns:xlink="http://www.w3.org/1999/xlink"
 xmlns:xodm="http://www.corel.com/coreldraw/odm/2003">
 <defs>
  <style type="text/css">
   <![CDATA[
    .str1 {stroke:black;stroke-width:13.89;stroke-linecap:round;stroke-linejoin:round;stroke-miterlimit:2.61313}
    .str0 {stroke:black;stroke-width:6.94;stroke-linecap:round;stroke-linejoin:round;stroke-miterlimit:2.61313}
    .fil0 {fill:none}
   ]]>
  </style>
 </defs>
 <g id="Layer_x0020_1">
  <metadata id="CorelCorpID_0Corel-Layer"/>
  <path class="fil0 str0" d="M6029.14 621.6l0 -6.12m0 -400.36l1396.52 0m383.21 0l1666 0 0 3430.05 -408.34 400.36 -4085.76 4093.73 -3404.2 0"/>
  <path class="fil0 str0" d="M7434.97 615.48l-1796.64 0 0 6.12m0 184.78l0 2996.07m3428.19 243.08l1.86 0 0 -3430.06 -390.6 0 -861.34 0"/>
  <line class="fil0 str0" x1="9068.38" y1="621.6" x2="9474.86" y2= "215.12" />
  <line class="fil0 str0" x1="5638.33" y1="621.6" x2="6044.81" y2= "215.12" />
  <path class="fil0 str1" d="M7965.38 1305.58l0 -618.55 -147.47 0m-382.94 0l-88.14 0"/>
  <rect class="fil0 str1" transform="matrix(3.96051E-15 0.149541 -0.149541 3.96051E-15 7817.06 827.122)" width="4136.32" height="4136.32"/>
  <line class="fil0 str1" x1="7817.06" y1="827.12" x2="7965.38" y2= "687.04" />
  <line class="fil0 str1" x1="7198.52" y1="827.12" x2="7346.83" y2= "687.04" />
  <line class="fil0 str1" x1="7817.06" y1="1445.67" x2="7965.38" y2= "1305.58" />
  <polyline class="fil0 str1" points="7816.44,621.6 7816.44,68.42 7466.07,68.42 "/>
  <rect class="fil0 str1" transform="matrix(3.96051E-15 0.149541 -0.0847039 2.24334E-15 7785.33 119.116)" width="4136.32" height="4136.32"/>
  <polyline class="fil0 str1" points="7785.33,737.66 7817.91,687.04 7816.44,621.6 "/>
  <line class="fil0 str1" x1="7785.33" y1="119.11" x2="7816.44" y2= "68.42" />
  <line class="fil0 str1" x1="7434.97" y1="119.11" x2="7466.07" y2= "68.42" />
  <ellipse class="fil0 str0" transform="matrix(-0.351286 0.494105 -0.608446 -0.285272 7696.06 1337.91)" rx="45.49" ry="34.11"/>
  <ellipse class="fil0 str0" transform="matrix(-0.351286 0.494105 -0.608446 -0.285272 7327.02 939.224)" rx="45.49" ry="34.11"/>
  <ellipse class="fil0 str0" transform="matrix(-0.351286 0.494105 -0.608446 -0.285272 7327.02 1347.64)" rx="45.49" ry="34.11"/>
  <ellipse class="fil0 str0" transform="matrix(-0.351286 0.494105 -0.608446 -0.285272 7696.06 948.957)" rx="45.49" ry="34.11"/>
  <polygon class="fil0 str0" points="7696.06,1337.91 7682.54,1324.39 7711.61,1353.46 "/>
  <polygon class="fil0 str0" points="7696.06,1339.94 7677.25,1358.76 "/>
  <line class="fil0 str0" x1="7697.07" y1="1338.93" x2="7716.31" y2= "1319.7" />
  <polygon class="fil0 str0" points="7326.98,1345.61 7313.46,1332.09 7342.54,1361.17 "/>
  <polygon class="fil0 str1" points="7326.98,1347.65 7308.18,1366.46 "/>
  <line class="fil0 str0" x1="7328" y1="1346.63" x2="7347.23" y2= "1327.4" />
  <polygon class="fil0 str1" points="7696.06,949.41 7682.54,935.88 7711.61,964.96 "/>
  <polygon class="fil0 str0" points="7696.06,951.43 7677.25,970.24 "/>
  <line class="fil0 str0" x1="7697.07" y1="950.42" x2="7716.31" y2= "931.19" />
  <polygon class="fil0 str0" points="7327.14,936.34 7313.61,922.82 7342.69,951.9 "/>
  <polygon class="fil0 str0" points="7327.14,938.37 7308.33,957.19 "/>
  <line class="fil0 str1" x1="7328.15" y1="937.36" x2="7347.39" y2= "918.13" />
  <line class="fil0 str0" x1="9068.38" y1="621.6" x2="6702.2" y2= "2955.81" />
  <polyline class="fil0 str0" points="5638.33,621.6 3129.31,3124.5 2055.25,4198.57 1576.56,4677.25 1576.57,8139.26 "/>
  <line class="fil0 str0" x1="6702.2" y1="2955.81" x2="4980.76" y2= "4677.25" />
  <polyline class="fil0 str0" points="4980.76,8139.26 4980.76,4677.25 1576.56,4677.25 "/>
  <line class="fil0 str0" x1="5313.18" y1="4344.84" x2="5313.18" y2= "7806.2" />
  <line class="fil0 str0" x1="1908.89" y1="4344.93" x2="5313.18" y2= "4344.93" />
  <line class="fil0 str0" x1="5097.27" y1="4340.3" x2="8849.01" y2= "610.85" />
  <line class="fil0 str0" x1="2104.42" y1="4340.3" x2="5833.86" y2= "610.85" />
  <ellipse class="fil0 str0" cx="4399.99" cy="5131.93" rx="151.33" ry="160.23"/>
  <ellipse class="fil0 str0" cx="4373.69" cy="5708.65" rx="151.33" ry="160.23"/>
  <ellipse class="fil0 str0" cx="3866.23" cy="5105.24" rx="151.33" ry="160.23"/>
  <ellipse class="fil0 str0" cx="3351.67" cy="5125.37" rx="151.33" ry="160.23"/>
  <ellipse class="fil0 str0" cx="2803.95" cy="5136.25" rx="151.33" ry="160.23"/>
  <ellipse class="fil0 str0" cx="2236.9" cy="5171.6" rx="151.33" ry="160.23"/>
  <ellipse class="fil0 str0" cx="3816.1" cy="5731.19" rx="151.33" ry="160.23"/>
  <ellipse class="fil0 str0" cx="3316.81" cy="5765.71" rx="151.33" ry="160.23"/>
  <ellipse class="fil0 str0" cx="2806.61" cy="5756.98" rx="151.33" ry="160.23"/>
  <ellipse class="fil0 str0" cx="2220.18" cy="5756.98" rx="151.33" ry="160.23"/>
  <ellipse class="fil0 str0" cx="4362.94" cy="6368.44" rx="151.33" ry="160.23"/>
  <ellipse class="fil0 str0" cx="3818.55" cy="6380.49" rx="151.33" ry="160.23"/>
  <ellipse class="fil0 str0" cx="3333.24" cy="6361.98" rx="151.33" ry="160.23"/>
  <ellipse class="fil0 str0" cx="2757.49" cy="6403.63" rx="151.33" ry="160.23"/>
  <ellipse class="fil0 str0" cx="2250.07" cy="6380.49" rx="151.33" ry="160.23"/>
  <ellipse class="fil0 str0" cx="4355.21" cy="6958.06" rx="151.33" ry="160.23"/>
  <ellipse class="fil0 str0" cx="3810.9" cy="6959.94" rx="151.33" ry="160.23"/>
  <ellipse class="fil0 str0" cx="3304.29" cy="6962.55" rx="151.33" ry="160.23"/>
  <ellipse class="fil0 str0" cx="2772.08" cy="6980.07" rx="151.33" ry="160.23"/>
  <ellipse class="fil0 str0" cx="2205.59" cy="6947.67" rx="151.33" ry="160.23"/>
 </g>
</svg>
